<svg width="936" height="875" viewBox="0.00 0.00 206.00 188.00" xmlns="http://www.w3.org/2000/svg" xmlns:xlink="http://www.w3.org/1999/xlink">
<g id="graph0" class="graph" transform="translate(3.7317955493927, 184)">
<title>G</title>
<polygon fill="white" stroke="none" points="-4,4 -4,-184 202,-184 202,4 -4,4"/>
<!-- a -->
<g id="node1" class="node">
<title>a</title>
<ellipse fill="none" stroke="black" cx="99" cy="-162" rx="33.58" ry="18"/>
<text text-anchor="middle" x="99" y="-157.8" font-family="Times,serif" font-size="14.00">Study</text>
</g>
<!-- b1 -->
<g id="node2" class="node">
<title>b1</title>
<ellipse fill="pink" stroke="pink" cx="27" cy="-90" rx="27" ry="18"/>
<text text-anchor="middle" x="27" y="-85.8" font-family="Times,serif" font-size="14.00">A 1</text>
</g>
<!-- a&#45;&#45;b1 -->
<g id="edge1" class="edge">
<title>a--b1</title>
<path fill="none" stroke="black" d="M83.38,-145.81C70.97,-133.75 53.75,-117 41.61,-105.21"/>
</g>
<!-- b2 -->
<g id="node3" class="node">
<title>b2</title>
<ellipse fill="pink" stroke="pink" cx="99" cy="-90" rx="27" ry="18"/>
<text text-anchor="middle" x="99" y="-85.8" font-family="Times,serif" font-size="14.00">A 2</text>
</g>
<!-- a&#45;&#45;b2 -->
<g id="edge2" class="edge">
<title>a--b2</title>
<path fill="none" stroke="black" d="M99,-143.7C99,-132.85 99,-118.92 99,-108.1"/>
</g>
<!-- b3 -->
<g id="node4" class="node">
<title>b3</title>
<ellipse fill="pink" stroke="pink" cx="171" cy="-90" rx="27" ry="18"/>
<text text-anchor="middle" x="171" y="-85.8" font-family="Times,serif" font-size="14.00">A 3</text>
</g>
<!-- a&#45;&#45;b3 -->
<g id="edge3" class="edge">
<title>a--b3</title>
<path fill="none" stroke="black" d="M114.62,-145.81C127.03,-133.75 144.25,-117 156.39,-105.21"/>
</g>
<!-- s1 -->
<g id="node5" class="node">
<title>s1</title>
<ellipse fill="lightblue" stroke="lightblue" cx="27" cy="-18" rx="27" ry="18"/>
<text text-anchor="middle" x="27" y="-13.8" font-family="Times,serif" font-size="14.00">B 1</text>
</g>
<!-- b1&#45;&#45;s1 -->
<g id="edge4" class="edge">
<title>b1--s1</title>
<path fill="none" stroke="black" d="M27,-71.7C27,-60.85 27,-46.92 27,-36.1"/>
</g>
<!-- s2 -->
<g id="node6" class="node">
<title>s2</title>
<ellipse fill="lightblue" stroke="lightblue" cx="99" cy="-18" rx="27" ry="18"/>
<text text-anchor="middle" x="99" y="-13.8" font-family="Times,serif" font-size="14.00">B 2</text>
</g>
<!-- b1&#45;&#45;s2 -->
<g id="edge5" class="edge">
<title>b1--s2</title>
<path fill="none" stroke="black" d="M41.92,-74.5C54.28,-62.48 71.75,-45.49 84.1,-33.49"/>
</g>
<!-- s3 -->
<g id="node7" class="node">
<title>s3</title>
<ellipse fill="lightblue" stroke="lightblue" cx="171" cy="-18" rx="27" ry="18"/>
<text text-anchor="middle" x="171" y="-13.8" font-family="Times,serif" font-size="14.00">B 3</text>
</g>
<!-- b1&#45;&#45;s3 -->
<g id="edge6" class="edge">
<title>b1--s3</title>
<path fill="none" stroke="black" d="M48.56,-78.52C75.86,-65.25 122.61,-42.52 149.76,-29.32"/>
</g>
<!-- b2&#45;&#45;s1 -->
<g id="edge7" class="edge">
<title>b2--s1</title>
<path fill="none" stroke="black" d="M84.08,-74.5C71.72,-62.48 54.25,-45.49 41.9,-33.49"/>
</g>
<!-- b2&#45;&#45;s2 -->
<g id="edge8" class="edge">
<title>b2--s2</title>
<path fill="none" stroke="black" d="M99,-71.7C99,-60.85 99,-46.92 99,-36.1"/>
</g>
<!-- b2&#45;&#45;s3 -->
<g id="edge9" class="edge">
<title>b2--s3</title>
<path fill="none" stroke="black" d="M113.92,-74.5C126.28,-62.48 143.75,-45.49 156.1,-33.49"/>
</g>
<!-- b3&#45;&#45;s1 -->
<g id="edge10" class="edge">
<title>b3--s1</title>
<path fill="none" stroke="black" d="M149.44,-78.52C122.14,-65.25 75.39,-42.52 48.24,-29.32"/>
</g>
<!-- b3&#45;&#45;s2 -->
<g id="edge11" class="edge">
<title>b3--s2</title>
<path fill="none" stroke="black" d="M156.08,-74.5C143.72,-62.48 126.25,-45.49 113.9,-33.49"/>
</g>
<!-- b3&#45;&#45;s3 -->
<g id="edge12" class="edge">
<title>b3--s3</title>
<path fill="none" stroke="black" d="M171,-71.7C171,-60.85 171,-46.92 171,-36.1"/>
</g>
</g>
</svg>